<svg width="566" height="700" viewBox="0 0 566 700" fill="none" xmlns="http://www.w3.org/2000/svg">
<path fill-rule="evenodd" clip-rule="evenodd" d="M427.309 47.2077C508.001 48.8516 589.234 -18.0019 661.649 17.6281C735.411 53.9205 781.833 141.536 785.884 223.634C789.669 300.337 699.792 348.133 681.64 422.753C660.806 508.396 741.037 622.544 674.718 680.611C610.478 736.857 512.301 653.661 427.309 645.433C354.152 638.351 279.673 665.506 212.421 635.857C134.937 601.697 63.2348 546.923 28.6038 469.657C-7.97924 388.036 -8.18757 292.68 20.6602 208.016C49.2581 124.085 103.462 40.5468 185.927 7.93633C263.634 -22.7928 343.762 45.5056 427.309 47.2077Z" fill="#F45050" fill-opacity="0.75"/>
</svg>
