<?xml version="1.0" encoding="utf-8"?>
<!-- Generator: Adobe Illustrator 21.0.0, SVG Export Plug-In . SVG Version: 6.00 Build 0)  -->
<svg version="1.1" xmlns="http://www.w3.org/2000/svg" xmlns:xlink="http://www.w3.org/1999/xlink" x="0px" y="0px"
	 viewBox="0 0 1366 768" style="enable-background:new 0 0 1366 768;" xml:space="preserve">
<style type="text/css">
	.st0{fill:#1A1A1A;}
	.st1{fill:#1A1A1A;stroke:#FFFFFF;stroke-width:30;stroke-miterlimit:10;}
	.st2{fill:#E25E3B;}
	.st3{fill:#FFFFFF;}
	.st4{fill:none;stroke:#1A1A1A;stroke-width:14;stroke-miterlimit:10;}
</style>
<g id="Layer_2">
</g>
<g id="Layer_1">
	<g>
		<path class="st0" d="M500.9,295.1l0.8,1.8l0.5,0l0.8-1.8l14-60.8l27.4,0l-28.5,109.2l-0.1,81l-28,0l0.1-81l-28.4-109.2l27.4,0
			L500.9,295.1z"/>
		<path class="st0" d="M556.4,424.5l0.1-190.2l24.6,0c16.6,0,29.5,3.1,38,11.2c8.5,8,12.9,20.5,12.9,39.3c0,9.1-0.8,15.8-3.6,22
			c-2.9,6.2-7.3,11.4-13.7,17.3c7,3.9,12.2,11.1,16.3,23.3c2.1,6,3.1,13.7,3.1,23.3c0,14.2-2.6,26.9-9.1,36.7
			c-6.5,9.8-17.6,16.3-34.2,17.1L556.4,424.5z M584.4,396.9c2.3,0,7.8,0.5,12.4-2.8c4.7-3.4,8.3-10.9,8.3-26.4
			c0-15.5-3.6-23-8.3-26.4c-4.7-3.4-10.1-2.9-12.4-2.9L584.4,396.9z M584.4,312.7c2.3,0,7.8,0.3,12.4-2.8s8.3-9.3,8.3-22.5
			c0-13.2-3.6-19.4-8.3-22.5c-4.7-3.1-10.1-2.9-12.4-2.9L584.4,312.7z"/>
		<path class="st0" d="M650.8,234.4l63.9,0l0,28.7l-36,0l0,49.9l25.9,0l0,30.5l-25.9,0l0,52.3l36,0l0,28.7l-63.9,0L650.8,234.4z"/>
		<path class="st0" d="M780,424.7l-14.4-80.2l-7.5,0l-0.1,80.2l-28,0l0.1-190.2l28,0c33.4,0,47.6,18.9,47.6,54.9
			c0,18.9-4.9,36-15.6,43.2l17.8,92.1L780,424.7z M758.1,318.6c3.9,0,9.1-0.5,13.2-4.1c4.1-3.6,7.5-10.6,7.5-24.1
			c0-13.5-3.4-20.7-7.5-24.3c-4.1-3.6-9.3-3.9-13.2-3.9L758.1,318.6z"/>
		<path class="st0" d="M823.5,424.7l0.1-190.2l22,0c25.9,0,39.9,5.2,47.3,19.7c7.2,14.5,8.3,38.3,8.2,75.6c0,37.3-1.1,60.8-8.3,75.3
			c-7.5,14.5-21.5,19.7-47.4,19.6L823.5,424.7z M851.5,396.8c9.6,0,15-1,17.9-10.3c1.3-4.4,2.3-11.1,2.6-20.2
			c0.3-9.1,0.3-21.2,0.3-36.7c0-15.5,0-27.7-0.2-36.8c-0.3-8.8-1.3-15.5-2.6-20.2c-2.8-9.1-8.3-10.1-17.9-10.1L851.5,396.8z"/>
		<path class="st0" d="M994.2,234.6l-0.1,151.1c-0.3,7.8-1.8,14.8-4.7,20.7c-2.3,5.2-6,10.1-11.1,14c-5.2,4.1-12.2,6.5-21.5,6.5
			c-9.3,0-16.6-2.3-21.7-6.5c-5.2-3.9-8.5-8.8-10.9-14c-2.8-6-4.4-12.9-4.6-20.7l0.1-151.1l28,0l-0.1,151.1c0,5.4,1.3,9.1,3.9,11.9
			c1.3,1.3,3.1,2.1,5.4,2.1c4.9,0,7.2-3.1,8.3-7c0.8-1.8,1-4.1,1-7l0.1-151.1L994.2,234.6z"/>
		<path class="st0" d="M1014.5,424.9l0.1-190.2l22,0c25.9,0,39.9,5.2,47.3,19.7c7.2,14.5,8.3,38.3,8.2,75.6
			c0,37.3-1.1,60.8-8.3,75.3c-7.5,14.5-21.5,19.7-47.4,19.6L1014.5,424.9z M1042.5,396.9c9.6,0,15-1,17.9-10.3
			c1.3-4.4,2.3-11.1,2.6-20.2c0.3-9.1,0.3-21.2,0.3-36.7c0-15.5,0-27.7-0.2-36.8c-0.3-8.8-1.3-15.5-2.6-20.2
			c-2.8-9.1-8.3-10.1-17.9-10.1L1042.5,396.9z"/>
		<path class="st0" d="M1110.9,234.7l63.9,0l0,28.7l-36,0l0,49.9l25.9,0l0,30.5l-25.9,0l0,52.3l36,0l0,28.7l-63.9,0L1110.9,234.7z"
			/>
	</g>
	<g>
		<g>
			<path class="st0" d="M544.6,557.3l-1.8-5.9h-1.2v72.4h-20.2V496.2h19.6l21.5,66.5l1.8,5.9h1.2v-72.4h20.2v127.5h-19.6
				L544.6,557.3z"/>
			<path class="st0" d="M602.1,496.2h50.5v19.3h-28.4V549h20.4v20.5h-20.4v35.1h28.4v19.3h-50.5V496.2z"/>
			<path class="st0" d="M657,515.5v-19.3h63.8v19.3H700v108.3h-22.1V515.5H657z"/>
			<path class="st0" d="M761.1,623.8h-17.2l-20.2-127.5h20.4l8.8,66.3l0.4,4.2h1.6l0.6-4.2l9.4-66.3h15.9l9.4,66.3l0.6,4.2h1.6
				l0.4-4.2l8.8-66.3h20.4L802,623.8h-17.2l-10.2-60.4l-1.2-7.5h-0.8l-1.2,7.5L761.1,623.8z"/>
			<path class="st0" d="M890.3,597.6c-0.2,5.2-1.4,9.9-3.7,13.9c-1.8,3.5-4.7,6.8-8.8,9.4c-4.1,2.8-9.6,4.3-17,4.3
				s-13.1-1.6-17.2-4.3c-4.1-2.6-6.7-5.9-8.6-9.4c-2.2-4-3.5-8.7-3.7-13.9v-75.1c0.2-5,1.4-9.7,3.7-13.7c1.8-3.5,4.5-6.9,8.6-9.5
				c4.1-2.6,9.8-4.3,17.2-4.3s12.9,1.7,17,4.3c4.1,2.6,7,6.1,8.8,9.5c2.2,4,3.5,8.7,3.7,13.7V597.6z M868.2,522.4
				c0-3.5-0.8-5.9-2.9-8c-1-0.9-2.7-1.4-4.5-1.4c-3.9,0-5.7,2.4-6.5,4.7c-0.6,1.4-0.8,3-0.8,4.7v75.1c0,3.6,1,6.1,3.1,8
				c1,0.9,2.5,1.4,4.3,1.4c3.9,0,5.7-2.1,6.5-4.7c0.6-1.2,0.8-2.8,0.8-4.7V522.4z"/>
			<path class="st0" d="M944.7,623.8L933.2,570h-5.9v53.8h-22.1V496.2h22.1c26.4,0,37.6,12.7,37.6,36.8c0,12.7-3.9,24.1-12.3,29
				l14.1,61.8H944.7z M927.3,552.6c3.1,0,7.2-0.3,10.4-2.8c3.3-2.4,5.9-7.1,5.9-16.1s-2.7-13.9-5.9-16.3c-3.3-2.4-7.4-2.6-10.4-2.6
				V552.6z"/>
			<path class="st0" d="M1001.1,496.2v44.6h0.8l1-2.1l18.4-42.5h21.5l-20.2,42l22.9,85.5H1024l-15.3-55.5l-0.6-2.6h-0.6l-1.2,2.6
				l-5.1,10.4v45.1H979V496.2H1001.1z"/>
			<path class="st0" d="M1092.3,530.4c0-4.2-0.2-8.8-1.6-12.5c-1.4-3.5-3.7-5.9-7.2-5.9c-5.7,0.2-7.6,5.2-7.6,12.7
				c0,4.3,2.2,8.8,5.5,13.7c3.3,4.9,7.6,9.9,11.9,15.3c5.1,6.4,10.2,13,14.1,19.4c3.9,6.4,6.5,13,6.5,20c0,8.5-1.6,16.5-6.3,22.4
				c-4.7,5.9-12.3,9.7-24.3,9.7c-14.1,0-22.1-4.5-26.6-11.5c-4.5-6.9-5.5-16.1-5.5-25.7l21.7-1.7c0,5.4,0.2,10.8,1.8,14.7
				c1.4,4.2,3.9,6.9,8.6,6.9c6.5,0,9-5.9,9-14.1c0-4.2-2.5-9-5.7-14.1c-1.8-2.4-3.7-5-5.7-7.6c-4.3-5.2-9-11.1-13.9-17.5
				c-4.9-6.4-8.6-13-10.8-19.8c-1.2-3.3-1.8-6.8-1.8-10.2c0-6.9,1.8-14.4,6.5-20.1c4.7-5.6,11.9-9.5,22.3-9.7
				c13.3-0.2,21.1,4.5,25.3,11.3c4.3,6.9,5.5,15.4,5.5,22.6L1092.3,530.4z"/>
		</g>
	</g>
	<circle class="st0" cx="318.9" cy="335.2" r="135"/>
	<path class="st1" d="M364,308.8c0-15.9,7.9-30,19.9-38.5c-16.5-16.4-39.3-26.5-64.3-26.6c-50.5,0-91.6,41-91.6,91.5
		c0,50.5,41,91.6,91.5,91.6c43.4,0,79.8-30.3,89.3-70.9C383.8,354.8,364,334.1,364,308.8z"/>
	<circle class="st2" cx="297.8" cy="340.8" r="30.2"/>
	<circle class="st3" cx="298" cy="342.3" r="12.9"/>
	<rect x="169.1" y="211.2" class="st2" width="33.4" height="33.4"/>
	<rect x="169.8" y="154.8" class="st2" width="25.1" height="25.1"/>
	<rect x="128" y="184.1" class="st0" width="27.8" height="27.8"/>
	<rect x="135" y="127" class="st0" width="23.7" height="23.7"/>
	<rect x="295.7" y="448" class="st0" width="946.7" height="22.2"/>
	<path class="st3" d="M1263.6,437.4"/>
	<path class="st4" d="M1220.6,487.3c9.4,11.9,23.9,19.5,40.1,19.5c28.2,0,51.1-22.9,51.1-51.1c0-28.2-22.9-51.1-51.1-51.1
		c-20,0-37.3,11.5-45.7,28.2"/>
	<polygon class="st2" points="1281,466.3 1255,478.1 1244.6,482.7 1242.4,483.7 1242.4,435.5 1255,440.5 1281,450.9 1248.2,450.9 
		1248.2,466.3 	"/>
	<g>
	</g>
	<g>
	</g>
	<g>
	</g>
	<g>
	</g>
	<g>
	</g>
	<g>
	</g>
	<g>
	</g>
	<g>
	</g>
	<g>
	</g>
	<g>
	</g>
	<g>
	</g>
	<g>
	</g>
	<g>
	</g>
	<g>
	</g>
	<g>
	</g>
</g>
</svg>
