<svg id="Layer_1" data-name="Layer 1" xmlns="http://www.w3.org/2000/svg" viewBox="0 0 1190.84 498.15"><defs><style>.cls-1,.cls-2{fill:#fff;}.cls-2{stroke:#1a1a1a;stroke-width:30px;}.cls-2,.cls-4{stroke-miterlimit:10;}.cls-3{fill:#e25e3b;}.cls-4{fill:none;stroke:#fff;stroke-width:14px;}</style></defs><title>cdn-core-idea-1[modified]</title><path class="cls-1" d="M500.92,295.38l.78,1.81h.52l.78-1.81,14-60.82H544.4L515.93,343.77v81H488v-81L459.51,234.56h27.43Z" transform="translate(-128 -127)"/><path class="cls-1" d="M556.56,424.78V234.56h24.59c16.56,0,29.5,3.11,38,11.13s12.94,20.45,12.94,39.34c0,9.06-.78,15.79-3.62,22s-7.25,11.39-13.72,17.34c7,3.88,12.16,11.13,16.3,23.29q3.11,8.93,3.11,23.29c0,14.23-2.59,26.92-9.06,36.75S607.55,424,591,424.78Zm28-111.8c2.33,0,7.76.26,12.42-2.85s8.28-9.32,8.28-22.52-3.62-19.41-8.28-22.52-10.09-2.85-12.42-2.85Zm0,84.11c2.33,0,7.76.52,12.42-2.85s8.28-10.87,8.28-26.4-3.62-23-8.28-26.4-10.09-2.85-12.42-2.85Z" transform="translate(-128 -127)"/><path class="cls-1" d="M650.77,234.56h63.92v28.73h-36v49.95H704.6v30.54H678.72v52.28h36v28.73H650.77Z" transform="translate(-128 -127)"/><path class="cls-1" d="M780.17,424.78l-14.49-80.23h-7.51v80.23h-28V234.56h28c33.39,0,47.62,18.89,47.62,54.87,0,18.89-4.92,36-15.53,43.22l17.86,92.13Zm-22-106.11c3.88,0,9.06-.52,13.2-4.14s7.51-10.61,7.51-24.07-3.37-20.7-7.51-24.33-9.32-3.88-13.2-3.88Z" transform="translate(-128 -127)"/><path class="cls-1" d="M823.65,424.78V234.56h22c25.88,0,39.86,5.18,47.36,19.67,7.25,14.49,8.28,38.3,8.28,75.57s-1,60.82-8.28,75.31c-7.51,14.49-21.48,19.67-47.36,19.67Zm28-28c9.58,0,15-1,17.86-10.35,1.29-4.4,2.33-11.13,2.59-20.19s.26-21.22.26-36.75,0-27.69-.26-36.75a87.27,87.27,0,0,0-2.59-20.19c-2.85-9.06-8.28-10.09-17.86-10.09Z" transform="translate(-128 -127)"/><path class="cls-1" d="M994.2,234.56V385.7a51.82,51.82,0,0,1-4.66,20.7,35.61,35.61,0,0,1-11.13,14c-5.18,4.14-12.16,6.47-21.48,6.47s-16.56-2.33-21.74-6.47a34.89,34.89,0,0,1-10.87-14,51.82,51.82,0,0,1-4.66-20.7V234.56h28V385.7c0,5.43,1.29,9.06,3.88,11.91a7.41,7.41,0,0,0,5.43,2.07c4.92,0,7.25-3.11,8.28-7a18.09,18.09,0,0,0,1-7V234.56Z" transform="translate(-128 -127)"/><path class="cls-1" d="M1014.64,424.78V234.56h22c25.88,0,39.86,5.18,47.36,19.67,7.25,14.49,8.28,38.3,8.28,75.57s-1,60.82-8.28,75.31c-7.51,14.49-21.48,19.67-47.36,19.67Zm28-28c9.58,0,15-1,17.86-10.35,1.29-4.4,2.33-11.13,2.59-20.19s.26-21.22.26-36.75,0-27.69-.26-36.75a87.27,87.27,0,0,0-2.59-20.19c-2.85-9.06-8.28-10.09-17.86-10.09Z" transform="translate(-128 -127)"/><path class="cls-1" d="M1110.92,234.56h63.92v28.73h-36v49.95h25.88v30.54h-25.88v52.28h36v28.73h-63.92Z" transform="translate(-128 -127)"/><path class="cls-1" d="M544.62,557.31l-1.84-5.9h-1.23v72.36H521.31V496.23h19.62l21.46,66.46,1.84,5.9h1.23V496.23h20.24V623.77H566.08Z" transform="translate(-128 -127)"/><path class="cls-1" d="M602.06,496.23h50.49v19.26H624.13V549h20.44v20.48H624.13V604.5h28.41v19.26H602.06Z" transform="translate(-128 -127)"/><path class="cls-1" d="M657,515.49V496.23h63.78v19.26H700V623.77H677.9V515.49Z" transform="translate(-128 -127)"/><path class="cls-1" d="M761.09,623.77H743.92L723.69,496.23h20.44l8.79,66.29.41,4.17H755l.61-4.17,9.4-66.29h15.95l9.4,66.29.61,4.17h1.64l.41-4.17,8.79-66.29h20.44L802,623.77H784.81l-10.22-60.39-1.23-7.46h-.82l-1.23,7.46Z" transform="translate(-128 -127)"/><path class="cls-1" d="M890.29,597.56a30.44,30.44,0,0,1-3.68,13.88,25,25,0,0,1-8.79,9.37c-4.09,2.78-9.61,4.34-17,4.34s-13.08-1.56-17.17-4.34a24.34,24.34,0,0,1-8.59-9.37,30.44,30.44,0,0,1-3.68-13.88V522.43a30.32,30.32,0,0,1,3.68-13.71,24.76,24.76,0,0,1,8.59-9.54c4.09-2.6,9.81-4.34,17.17-4.34s12.88,1.74,17,4.34a25.4,25.4,0,0,1,8.79,9.54,30.32,30.32,0,0,1,3.68,13.71Zm-22.08-75.14c0-3.47-.82-5.9-2.86-8a7,7,0,0,0-4.5-1.39,6.58,6.58,0,0,0-6.54,4.69,11.47,11.47,0,0,0-.82,4.68v75.14c0,3.64,1,6.07,3.07,8a6.46,6.46,0,0,0,4.29,1.39c3.88,0,5.72-2.08,6.54-4.68a10.47,10.47,0,0,0,.82-4.69Z" transform="translate(-128 -127)"/><path class="cls-1" d="M944.66,623.77,933.21,570h-5.93v53.79H905.21V496.23h22.08c26.37,0,37.61,12.67,37.61,36.79,0,12.67-3.88,24.12-12.27,29l14.11,61.77Zm-17.37-71.14c3.07,0,7.15-.35,10.42-2.78s5.93-7.11,5.93-16.14-2.66-13.88-5.93-16.31-7.36-2.6-10.42-2.6Z" transform="translate(-128 -127)"/><path class="cls-1" d="M1001.08,496.23v44.59h.82l1-2.08,18.4-42.51h21.46l-20.24,42,22.9,85.55H1024l-15.33-55.53-.61-2.6h-.61l-1.23,2.6-5.11,10.41v45.12H979V496.23Z" transform="translate(-128 -127)"/><path class="cls-1" d="M1092.25,530.41c0-4.16-.2-8.85-1.64-12.49-1.43-3.47-3.68-5.9-7.15-5.9-5.72.17-7.56,5.21-7.56,12.67,0,4.34,2.25,8.85,5.52,13.71s7.56,9.89,11.86,15.27a193.83,193.83,0,0,1,14.1,19.43c3.88,6.42,6.54,13,6.54,20,0,8.5-1.64,16.49-6.34,22.38s-12.26,9.72-24.33,9.72c-14.1,0-22.08-4.51-26.57-11.45s-5.52-16.14-5.52-25.68l21.67-1.73c0,5.38.2,10.76,1.84,14.75,1.43,4.16,3.88,6.94,8.58,6.94,6.54,0,9-5.9,9-14.05,0-4.17-2.45-9-5.72-14.06-1.84-2.43-3.68-5-5.72-7.63-4.29-5.21-9-11.11-13.9-17.53a68.26,68.26,0,0,1-10.83-19.78,29.37,29.37,0,0,1-1.84-10.24c0-6.94,1.84-14.4,6.54-20.13,4.7-5.55,11.86-9.54,22.28-9.72,13.29-.17,21.06,4.51,25.35,11.28,4.29,6.94,5.52,15.44,5.52,22.56Z" transform="translate(-128 -127)"/><circle class="cls-1" cx="190.88" cy="208.23" r="134.97"/><path class="cls-2" d="M364,308.76a47.22,47.22,0,0,1,19.86-38.52,91.5,91.5,0,1,0,24.78,85.69A47,47,0,0,1,364,308.76Z" transform="translate(-128 -127)"/><circle class="cls-3" cx="169.76" cy="213.78" r="30.2"/><circle class="cls-1" cx="170.01" cy="215.33" r="12.88"/><rect class="cls-3" x="41.06" y="84.21" width="33.4" height="33.4"/><rect class="cls-3" x="41.76" y="27.84" width="25.05" height="25.05"/><rect class="cls-1" y="57.07" width="27.84" height="27.84"/><rect class="cls-1" x="6.96" width="23.66" height="23.66"/><rect class="cls-1" x="167.74" y="321.03" width="946.69" height="22.17"/><path class="cls-1" d="M1263.64,437.42" transform="translate(-128 -127)"/><path class="cls-4" d="M1220.61,487.34a51.09,51.09,0,1,0-5.51-54.53" transform="translate(-128 -127)"/><polygon class="cls-3" points="1152.99 339.34 1126.96 351.06 1116.57 355.73 1114.43 356.69 1114.43 308.49 1126.96 313.51 1152.99 323.92 1120.22 323.92 1120.22 339.34 1152.99 339.34"/></svg>